<svg viewBox="0 0 40 40"  xmlns="http://www.w3.org/2000/svg">
    <path d="M13.2197 2C17.9424 2 22.665 2 27.3865 2C28.0911 2.0772 28.7957 2.1544 29.5003 2.2316C33.8896 2.71073 37.1283 5.52423 38.1307 9.81065C38.3917 10.9294 38.464 12.0923 38.6221 13.2356V27.4024C38.578 27.8043 38.524 28.2062 38.4922 28.6094C38.3574 30.3311 37.9922 31.9964 37.1332 33.5085C35.2755 36.7766 32.3076 38.366 28.6841 38.464C23.0939 38.6147 17.4963 38.5498 11.9036 38.4787C9.90868 38.453 8.01055 37.8427 6.34524 36.6798C3.54277 34.7217 2.26101 31.9032 2.14092 28.5959C1.98897 24.4296 2.00245 20.2559 2 16.0847C2 14.3985 2.0723 12.7063 2.23895 11.0287C2.66294 6.75697 5.53893 3.4864 9.72855 2.50609C10.8694 2.23895 12.0556 2.16298 13.2197 2ZM35.3748 20.3319L35.1934 20.3294C35.1934 17.8872 35.1971 15.4462 35.1885 13.004C35.1873 12.6389 35.1248 12.2749 35.0942 11.9097C34.7768 8.16495 32.4559 5.78279 28.7013 5.54138C23.1123 5.18112 17.5147 5.18234 11.9257 5.54016C8.13431 5.78279 5.76563 8.15392 5.52423 11.9514C5.16764 17.5404 5.16519 23.138 5.52668 28.727C5.76931 32.4767 8.15024 34.854 11.9048 35.0966C17.4939 35.4569 23.0915 35.4557 28.6805 35.0978C32.4718 34.8552 34.8307 32.4841 35.0795 28.6866C35.2621 25.9074 35.2817 23.1172 35.3736 20.3319H35.3748Z" />
    <path d="M20.3073 10.8938C25.552 10.9036 29.7318 15.0859 29.7294 20.3232C29.7269 25.5593 25.5361 29.7477 20.3 29.7453C15.0651 29.744 10.8681 25.5434 10.8779 20.3159C10.8877 15.0736 15.0798 10.884 20.3073 10.8938ZM14.2318 20.2803C14.2086 23.6134 16.8946 26.3497 20.2338 26.3914C23.5889 26.433 26.3522 23.72 26.3755 20.36C26.3988 17.0269 23.7127 14.2906 20.3735 14.2489C17.0196 14.2073 14.2551 16.9203 14.2318 20.2803Z" />
    <path d="M30.0518 8.32911C31.3287 8.32053 32.2931 9.27511 32.2943 10.5458C32.2943 11.7872 31.3446 12.7503 30.1082 12.7614C28.8399 12.7724 27.8608 11.8055 27.8608 10.5397C27.8608 9.30084 28.8166 8.33646 30.0518 8.32788V8.32911Z"/>
</svg>
