<svg viewBox="0 0 40 40"  xmlns="http://www.w3.org/2000/svg">
    <path d="M19.4825 5.00051C24.3993 5.00051 29.3165 4.99936 34.2332 5.00051C36.096 5.00108 37.5812 6.48361 37.9334 8.69851C37.9778 8.97824 37.9966 9.26889 37.9966 9.55437C38.0004 16.5132 38.0004 23.4721 37.9995 30.431C37.9995 33.0003 36.3675 34.9986 34.2681 34.9992C24.4186 35.0004 14.5691 35.0003 4.71959 34.9986C2.90255 34.9986 1.39802 33.4742 1.06615 31.3018C1.02461 31.0301 1.00289 30.7504 1.00242 30.4741C1.00006 23.4962 0.998641 16.5184 1.00195 9.54058C1.00336 7.23895 2.34077 5.3664 4.21399 5.03555C4.42312 4.99821 4.63792 5.00223 4.84988 5.00223C9.72744 4.99994 14.605 5.00108 19.4825 5.00051ZM5.23605 8.01899C5.78036 8.67898 6.28124 9.28554 6.78117 9.89384C9.9073 13.6964 13.0263 17.5081 16.1614 21.2997C17.9875 23.5077 21.0362 23.4945 22.8508 21.2905C26.425 16.9498 29.993 12.6016 33.5629 8.25622C33.6153 8.19246 33.6629 8.12411 33.7422 8.01899H5.23605ZM13.3946 22.1941C10.6876 25.4865 8.0067 28.7474 5.34699 31.983H33.6776C31.0009 28.725 28.3199 25.4618 25.629 22.1866C25.5941 22.2268 25.5379 22.2917 25.4813 22.3566C24.9186 22.9959 24.3969 23.7007 23.7865 24.2636C20.9365 26.8915 16.9352 26.5136 14.3911 23.4175C14.047 22.9988 13.7057 22.576 13.3941 22.1941H13.3946ZM11.5062 20.0487C8.82954 16.789 6.15094 13.5275 3.50304 10.3028V29.7882C6.19343 26.5141 8.86589 23.2613 11.5062 20.0487ZM35.5074 10.2528C32.8222 13.5177 30.1431 16.7746 27.5027 19.9849C30.1634 23.224 32.8392 26.4814 35.5074 29.7296V10.2528Z"/>
</svg>
