<svg  viewBox="0 0 40 40"  xmlns="http://www.w3.org/2000/svg">
    <path d="M1 31.7474C5.08013 32.0093 8.74165 30.9776 11.9993 28.5023C10.405 28.367 8.93882 27.9086 7.65431 26.9605C6.37274 26.0147 5.47372 24.7952 4.93888 23.2527C6.08287 23.375 7.1739 23.4186 8.25463 23.0694C6.52208 22.627 5.05659 21.7721 3.93613 20.394C2.812 19.0116 2.23375 17.4327 2.24258 15.5912C3.32772 16.1238 4.40403 16.4723 5.59217 16.4512C4.00161 15.2849 2.93413 13.7773 2.49713 11.8768C2.06013 9.9749 2.32498 8.1581 3.3108 6.41479C7.46597 11.2431 12.7107 13.8675 19.1296 14.3223C19.1053 14.1476 19.0928 14.0334 19.0729 13.9199C18.3262 9.68604 21.1755 5.83999 25.2218 5.13277C27.8401 4.67512 30.1061 5.40853 32.0336 7.21005C32.1255 7.2959 32.3131 7.34611 32.4389 7.3221C33.9155 7.04197 35.3008 6.51156 36.6191 5.80288C36.7228 5.74686 36.8303 5.69666 37.023 5.60134C36.4028 7.37594 35.3111 8.67105 33.8213 9.68095C35.2574 9.5609 36.611 9.16654 37.9301 8.63176L38 8.69797C37.5601 9.23494 37.1591 9.81046 36.6699 10.3001C35.982 10.9877 35.2345 11.6178 34.4996 12.2574C34.3274 12.4072 34.2546 12.5484 34.2568 12.7798C34.3311 19.5413 31.846 25.2303 26.8153 29.7901C24.0101 32.3324 20.665 33.8763 16.9255 34.5828C14.9045 34.9648 12.8674 35.0936 10.8192 34.9313C7.33796 34.6548 4.0921 33.6377 1.11035 31.823C1.0721 31.7998 1.03678 31.7721 1.00074 31.7459L1 31.7474Z"/>
</svg>
